# Blender 4.5.3 LTS
# www.blender.org
o Cylinder.001
v -0.000000 -0.148478 -0.000000
v -0.000000 0.148478 -0.000000
v -0.000000 -0.147029 -0.023852
v 0.020656 -0.147029 -0.011926
v 0.020656 0.147029 -0.011926
v -0.000000 0.147029 -0.023852
v 0.020656 -0.147029 0.011926
v 0.020656 0.147029 0.011926
v -0.000000 -0.147029 0.023852
v -0.000000 0.147029 0.023852
v -0.020656 -0.147029 0.011926
v -0.020656 0.147029 0.011926
v -0.020656 -0.147029 -0.011926
v -0.020656 0.147029 -0.011926
v -0.000000 -0.139811 -0.013617
v 0.011792 -0.139811 -0.006808
v 0.011792 0.139811 -0.006808
v -0.000000 0.139811 -0.013617
v 0.011792 -0.139811 0.006808
v 0.011792 0.139811 0.006808
v -0.000000 -0.139811 0.013617
v -0.000000 0.139811 0.013617
v -0.011792 -0.139811 0.006808
v -0.011792 0.139811 0.006808
v -0.011792 -0.139811 -0.006808
v -0.011792 0.139811 -0.006808
v -0.000000 0.060911 -0.023852
v -0.000000 0.086756 -0.023852
v -0.000000 0.112601 -0.023852
v 0.020656 0.112601 -0.011926
v 0.020656 0.086756 -0.011926
v 0.020656 0.060911 -0.011926
v -0.020656 0.112601 -0.011926
v -0.020656 0.086756 -0.011926
v -0.020656 0.060911 -0.011926
v 0.005581 0.116566 -0.020629
v 0.005581 0.134481 -0.020629
v 0.015075 0.134481 -0.015148
v 0.015075 0.116566 -0.015148
v -0.015075 0.116566 -0.015148
v -0.015075 0.134481 -0.015148
v -0.005581 0.134481 -0.020629
v -0.005581 0.116566 -0.020629
v -0.015075 0.064875 -0.015148
v -0.015075 0.082791 -0.015148
v -0.005581 0.082791 -0.020629
v -0.005581 0.064875 -0.020629
v -0.015075 0.090721 -0.015148
v -0.015075 0.108636 -0.015148
v -0.005581 0.108636 -0.020629
v -0.005581 0.090721 -0.020629
v 0.005581 0.064875 -0.020629
v 0.005581 0.082791 -0.020629
v 0.015075 0.082791 -0.015148
v 0.015075 0.064875 -0.015148
v 0.005581 0.090721 -0.020629
v 0.005581 0.108636 -0.020629
v 0.015075 0.108636 -0.015148
v 0.015075 0.090721 -0.015148
v 0.010328 0.125523 -0.010943
v -0.010328 0.125523 -0.010943
v -0.010328 0.073833 -0.010943
v -0.010328 0.099678 -0.010943
v 0.010328 0.073833 -0.010943
v 0.010328 0.099678 -0.010943
vn -0.0000 -1.0000 -0.0000
vn -0.0000 1.0000 -0.0000
vn -0.0000 -0.7731 -0.6343
vn 0.5493 -0.7731 -0.3172
vn 0.5493 0.7731 -0.3171
vn -0.0000 0.7731 -0.6343
vn 0.5493 -0.7731 0.3172
vn 0.5493 0.7731 0.3172
vn -0.0000 -0.7731 0.6343
vn -0.0000 0.7731 0.6343
vn -0.5493 -0.7731 0.3172
vn -0.5493 0.7731 0.3172
vn -0.5493 -0.7731 -0.3172
vn -0.5493 0.7731 -0.3171
vn -0.0000 -0.9794 0.2019
vn -0.1748 -0.9794 0.1009
vn -0.1748 0.9794 0.1009
vn -0.0000 0.9794 0.2019
vn -0.1748 -0.9794 -0.1009
vn -0.1748 0.9794 -0.1009
vn -0.0000 -0.9794 -0.2019
vn -0.0000 0.9794 -0.2019
vn 0.1748 -0.9794 -0.1009
vn 0.1748 0.9794 -0.1009
vn 0.1748 -0.9794 0.1009
vn 0.1748 0.9794 0.1009
vn -0.0000 -0.0000 -1.0000
vn 0.8660 -0.0000 -0.5000
vn -0.8660 -0.0000 -0.5000
vn 0.5652 0.0788 -0.8212
vn 0.5652 -0.0788 -0.8212
vn 0.4112 -0.1260 -0.9028
vn 0.4112 0.1260 -0.9028
vn -0.4112 0.1260 -0.9028
vn -0.4112 -0.1260 -0.9028
vn -0.5652 -0.0788 -0.8212
vn -0.5652 0.0788 -0.8212
vn 0.2093 -0.0000 -0.9779
vn -0.2093 -0.0000 -0.9779
vt 0.162953 0.240169
vt 0.249965 0.240169
vt 0.206459 0.973142
vt 0.400153 0.114232
vt 0.400153 0.240338
vt 0.326591 0.334918
vt 0.326591 0.114232
vt 0.253029 0.334918
vt 0.253029 0.114232
vt 0.179466 0.334918
vt 0.179466 0.114232
vt 0.105904 0.240338
vt 0.105904 0.114232
vt 0.251776 0.404361
vt 0.164764 0.404361
vt 0.208270 0.973142
vt 0.183115 0.768445
vt 0.135852 0.768446
vt 0.064802 0.425672
vt 0.147590 0.425672
vt 0.324905 0.768446
vt 0.277642 0.768446
vt 0.313166 0.425672
vt 0.395955 0.425672
vt 0.230378 0.432510
vt 0.032342 0.240338
vt 0.032342 0.114232
vt 0.162953 0.409346
vt 0.162953 0.245154
vt 0.206459 0.978127
vt 0.249965 0.242661
vt 0.249965 0.406853
vt 0.206459 0.975634
vt 0.473715 0.114232
vt 0.473715 0.240338
vt 0.164764 0.242661
vt 0.251776 0.242661
vt 0.208270 0.975634
vt 0.251776 0.409346
vt 0.164764 0.409346
vt 0.208270 0.978127
vt 0.473715 0.303391
vt 0.473715 0.334918
vt 0.453839 0.330081
vt 0.453839 0.308227
vt 0.400153 0.334918
vt 0.420028 0.330081
vt 0.400153 0.303391
vt 0.420028 0.308227
vt 0.105904 0.303391
vt 0.105904 0.334918
vt 0.086029 0.330081
vt 0.086029 0.308227
vt 0.032342 0.334918
vt 0.052218 0.330081
vt 0.032342 0.303391
vt 0.052218 0.308227
vt 0.105904 0.271864
vt 0.086029 0.267028
vt 0.086029 0.245174
vt 0.032342 0.271864
vt 0.052218 0.267028
vt 0.052218 0.245174
vt 0.086029 0.298555
vt 0.086029 0.276701
vt 0.052218 0.298555
vt 0.052218 0.276701
vt 0.473715 0.271864
vt 0.453839 0.267028
vt 0.453839 0.245174
vt 0.400153 0.271864
vt 0.420028 0.267028
vt 0.420028 0.245174
vt 0.453839 0.298555
vt 0.453839 0.276701
vt 0.420028 0.298555
vt 0.420028 0.276701
vt 0.164764 0.245154
vt 0.251776 0.406853
vt 0.164764 0.406853
vt 0.162953 0.242661
vt 0.164764 0.240169
vt 0.249965 0.404361
vt 0.162953 0.404361
vt 0.162953 0.406853
vt 0.249965 0.245154
vt 0.249965 0.409346
vt 0.251776 0.245154
vt 0.251776 0.240169
s 1
f 55/1/33 52/2/30 64/3/38
f 4/4/4 32/5/28 8/6/8 7/7/7
f 7/7/7 8/6/8 10/8/10 9/9/9
f 9/9/9 10/8/10 12/10/12 11/11/11
f 11/11/11 12/10/12 35/12/29 13/13/13
f 45/14/35 46/15/36 62/16/39
f 16/17/16 15/18/15 3/19/3 4/20/4
f 18/21/18 17/22/17 5/23/5 6/24/6
f 19/22/19 16/17/16 4/20/4 7/23/7
f 17/22/17 20/17/20 8/20/8 5/23/5
f 21/21/21 19/22/19 7/23/7 9/24/9
f 20/17/20 22/18/22 10/19/10 8/20/8
f 23/22/23 21/21/21 9/24/9 11/23/11
f 22/18/22 24/17/24 12/20/12 10/19/10
f 25/17/25 23/22/23 11/23/11 13/20/13
f 24/17/24 26/22/26 14/23/14 12/20/12
f 15/18/15 25/17/25 13/20/13 3/19/3
f 26/22/26 18/21/18 6/24/6 14/23/14
f 1/25/1 15/18/15 16/17/16
f 2/25/2 17/22/17 18/21/18
f 1/25/1 16/17/16 19/22/19
f 2/25/2 20/17/20 17/22/17
f 1/25/1 19/22/19 21/21/21
f 2/25/2 22/18/22 20/17/20
f 1/25/1 21/21/21 23/22/23
f 2/25/2 24/17/24 22/18/22
f 1/25/1 23/22/23 25/17/25
f 2/25/2 26/22/26 24/17/24
f 1/25/1 25/17/25 15/18/15
f 2/25/2 18/21/18 26/22/26
f 13/13/13 35/12/29 27/26/27 3/27/3
f 38/28/32 39/29/33 60/30/38
f 56/31/30 57/32/31 65/33/38
f 3/34/3 27/35/27 32/5/28 4/4/4
f 51/36/37 48/37/34 63/38/39
f 41/39/35 42/40/36 61/41/39
f 29/42/27 6/43/6 37/44/31 36/45/30
f 6/43/6 5/46/5 38/47/32 37/44/31
f 5/46/5 30/48/28 39/49/33 38/47/32
f 30/48/28 29/42/27 36/45/30 39/49/33
f 33/50/29 14/51/14 41/52/35 40/53/34
f 14/51/14 6/54/6 42/55/36 41/52/35
f 6/54/6 29/56/27 43/57/37 42/55/36
f 29/56/27 33/50/29 40/53/34 43/57/37
f 35/12/29 34/58/29 45/59/35 44/60/34
f 34/58/29 28/61/27 46/62/36 45/59/35
f 28/61/27 27/26/27 47/63/37 46/62/36
f 27/26/27 35/12/29 44/60/34 47/63/37
f 34/58/29 33/50/29 49/64/35 48/65/34
f 33/50/29 29/56/27 50/66/36 49/64/35
f 29/56/27 28/61/27 51/67/37 50/66/36
f 28/61/27 34/58/29 48/65/34 51/67/37
f 27/35/27 28/68/27 53/69/31 52/70/30
f 28/68/27 31/71/28 54/72/32 53/69/31
f 31/71/28 32/5/28 55/73/33 54/72/32
f 32/5/28 27/35/27 52/70/30 55/73/33
f 28/68/27 29/42/27 57/74/31 56/75/30
f 29/42/27 30/48/28 58/76/32 57/74/31
f 30/48/28 31/71/28 59/77/33 58/76/32
f 31/71/28 28/68/27 56/75/30 59/77/33
f 42/40/36 43/78/37 61/41/39
f 49/79/35 50/80/36 63/38/39
f 59/81/33 56/31/30 65/33/38
f 46/15/36 47/82/37 62/16/39
f 53/83/31 54/84/32 64/3/38
f 50/80/36 51/36/37 63/38/39
f 57/32/31 58/85/32 65/33/38
f 54/84/32 55/1/33 64/3/38
f 58/85/32 59/81/33 65/33/38
f 36/86/30 37/87/31 60/30/38
f 40/88/34 41/39/35 61/41/39
f 39/29/33 36/86/30 60/30/38
f 44/89/34 45/14/35 62/16/39
f 43/78/37 40/88/34 61/41/39
f 48/37/34 49/79/35 63/38/39
f 37/87/31 38/28/32 60/30/38
f 47/82/37 44/89/34 62/16/39
f 52/2/30 53/83/31 64/3/38
f 8/6/8 32/5/28 31/71/28 30/48/28 5/46/5
f 35/12/29 12/10/12 14/51/14 33/50/29 34/58/29
