# Blender 4.5.3 LTS
# www.blender.org
o Cylinder
v -0.000000 -0.148574 -0.023395
v -0.000000 0.143872 0.000000
v 0.020260 -0.148574 -0.005849
v 0.020260 -0.148574 0.005849
v -0.000000 -0.148574 0.023395
v -0.020260 -0.148574 0.011697
v -0.020260 -0.148574 -0.011697
v 0.020260 0.129057 -0.005849
v -0.000000 0.129057 -0.023395
v 0.020260 0.129057 0.005849
v -0.000000 0.129057 0.023395
v -0.020260 0.129057 0.011697
v -0.020260 0.129057 -0.011697
v 0.010895 0.139290 -0.006290
v -0.000000 0.139290 -0.012581
v 0.010895 0.139290 0.006290
v -0.000000 0.139290 0.012581
v -0.010895 0.139290 0.006290
v -0.010895 0.139290 -0.006290
vn 0.0949 -0.0000 -0.9955
vn 0.0797 0.3309 -0.9403
vn 0.8657 0.3332 -0.3736
vn 0.9096 -0.0000 -0.4155
vn 0.8657 0.3332 0.3736
vn 0.9096 -0.0000 0.4155
vn 0.0797 0.3309 0.9403
vn 0.0949 -0.0000 0.9955
vn -0.8094 0.3558 0.4673
vn -0.8660 -0.0000 0.5000
vn -0.8094 0.3558 -0.4673
vn -0.8660 -0.0000 -0.5000
vn -0.0000 -1.0000 -0.0000
vn 0.0474 0.8040 -0.5927
vn 0.5262 0.7827 -0.3324
vn 0.5262 0.7827 0.3324
vn 0.0474 0.8040 0.5927
vn -0.4942 0.8212 0.2853
vn -0.4942 0.8212 -0.2853
vn -0.0000 1.0000 -0.0000
vt 0.480087 0.015919
vt 0.480087 0.487988
vt 0.405995 0.487988
vt 0.405995 0.015919
vt 0.324091 1.063613
vt 0.324091 0.405587
vt 0.398183 0.405587
vt 0.398183 1.063613
vt 0.331904 0.015919
vt 0.331904 0.487988
vt 0.257812 0.487988
vt 0.257812 0.015919
vt 0.183721 0.487988
vt 0.183721 0.015919
vt 0.109629 0.487988
vt 0.109629 0.015919
vt 0.035538 0.487988
vt 0.035538 0.015919
vt 0.220703 0.142114
vt 0.271045 0.113049
vt 0.271045 0.054920
vt 0.220703 0.025855
vt 0.170362 0.054920
vt 0.170362 0.113049
vt 0.251240 0.836464
vt 0.351153 0.836464
vt 0.437030 0.533596
vt 0.251240 0.533596
vt 0.151327 0.836464
vt 0.065450 0.533596
vt 0.251240 0.972054
s 1
f 1/1/1 9/2/2 8/3/3 3/4/4
f 3/5/4 8/6/3 10/7/5 4/8/6
f 4/9/6 10/10/5 11/11/7 5/12/8
f 5/12/8 11/11/7 12/13/9 6/14/10
f 6/14/10 12/13/9 13/15/11 7/16/12
f 7/16/12 13/15/11 9/17/2 1/18/1
s 0
f 1/19/13 3/20/13 4/21/13 5/22/13 6/23/13 7/24/13
s 1
f 15/25/14 14/26/15 8/27/3 9/28/2
f 14/26/15 16/26/16 10/27/5 8/27/3
f 16/26/16 17/25/17 11/28/7 10/27/5
f 17/25/17 18/29/18 12/30/9 11/28/7
f 18/29/18 19/29/19 13/30/11 12/30/9
f 19/29/19 15/25/14 9/28/2 13/30/11
f 2/31/20 14/26/15 15/25/14
f 2/31/20 16/26/16 14/26/15
f 2/31/20 17/25/17 16/26/16
f 2/31/20 18/29/18 17/25/17
f 2/31/20 19/29/19 18/29/18
f 2/31/20 15/25/14 19/29/19
