# Blender 5.0.0
# www.blender.org
o RespawnCradle
v 0.000000 0.000000 -0.100000
v 0.000000 0.025000 -0.065519
v 0.086603 0.000000 -0.050000
v 0.056741 0.025000 -0.032759
v 0.086603 0.000000 0.050000
v 0.056741 0.025000 0.032759
v 0.000000 0.000000 0.100000
v 0.000000 0.025000 0.065519
v -0.086603 0.000000 0.050000
v -0.056741 0.025000 0.032759
v -0.086603 0.000000 -0.050000
v -0.056741 0.025000 -0.032759
v 0.072852 0.025000 -0.042061
v 0.000000 0.025000 -0.084122
v 0.072852 0.025000 0.042061
v 0.000000 0.025000 0.084122
v -0.072852 0.025000 0.042061
v -0.072852 0.025000 -0.042061
vn 0.4381 0.4819 -0.7588
vn 0.8762 0.4819 -0.0000
vn 0.4381 0.4819 0.7588
vn -0.4381 0.4819 0.7588
vn -0.0000 1.0000 -0.0000
vn -0.8762 0.4819 -0.0000
vn -0.4381 0.4819 -0.7588
vt 0.314140 0.385636
vt 0.314140 0.487972
vt 0.280028 0.487972
vt 0.280028 0.385636
vt 0.245917 0.487972
vt 0.245917 0.385636
vt 0.211805 0.487972
vt 0.211805 0.385636
vt 0.177693 0.487972
vt 0.177693 0.385636
vt 0.372660 0.429172
vt 0.143581 0.487972
vt 0.143581 0.385636
vt 0.109470 0.487972
vt 0.109470 0.385636
vt 0.363383 0.538059
s 0
f 1/1/1 14/2/1 13/3/1 3/4/1
f 3/4/2 13/3/2 15/5/2 5/6/2
f 5/6/3 15/5/3 16/7/3 7/8/3
f 7/8/4 16/7/4 17/9/4 9/10/4
f 4/11/5 2/11/5 12/11/5 10/11/5 8/11/5 6/11/5
f 9/10/6 17/9/6 18/12/6 11/13/6
f 11/13/7 18/12/7 14/14/7 1/15/7
f 2/11/5 4/11/5 13/16/5 14/16/5
f 4/11/5 6/11/5 15/16/5 13/16/5
f 6/11/5 8/11/5 16/16/5 15/16/5
f 8/11/5 10/11/5 17/16/5 16/16/5
f 10/11/5 12/11/5 18/16/5 17/16/5
f 12/11/5 2/11/5 14/16/5 18/16/5
