# Blender 4.5.3 LTS
# www.blender.org
o Cylinder.002
v -0.000000 -0.148478 -0.000000
v -0.000000 0.148478 -0.000000
v -0.000000 -0.109389 -0.023852
v 0.020656 -0.109389 -0.011926
v 0.020656 0.109389 -0.011926
v -0.000000 0.109389 -0.023852
v 0.020656 -0.109389 0.011926
v 0.020656 0.109389 0.011926
v -0.000000 -0.109389 0.023852
v -0.000000 0.109389 0.023852
v -0.020656 -0.109389 0.011926
v -0.020656 0.109389 0.011926
v -0.020656 -0.109389 -0.011926
v -0.020656 0.109389 -0.011926
v -0.000000 -0.139811 -0.013617
v 0.011792 -0.139811 -0.006808
v 0.011792 0.139811 -0.006808
v -0.000000 0.139811 -0.013617
v 0.011792 -0.139811 0.006808
v 0.011792 0.139811 0.006808
v -0.000000 -0.139811 0.013617
v -0.000000 0.139811 0.013617
v -0.011792 -0.139811 0.006808
v -0.011792 0.139811 0.006808
v -0.011792 -0.139811 -0.006808
v -0.011792 0.139811 -0.006808
vn -0.0000 -1.0000 -0.0000
vn -0.0000 1.0000 -0.0000
vn -0.0000 -0.1539 -0.9881
vn 0.8557 -0.1539 -0.4940
vn 0.8557 0.1539 -0.4940
vn -0.0000 0.1539 -0.9881
vn 0.8557 -0.1539 0.4940
vn 0.8557 0.1539 0.4940
vn -0.0000 -0.1539 0.9881
vn -0.0000 0.1539 0.9881
vn -0.8557 -0.1539 0.4940
vn -0.8557 0.1539 0.4940
vn -0.8557 -0.1539 -0.4940
vn -0.8557 0.1539 -0.4940
vn -0.0000 -0.5691 -0.8223
vn 0.7121 -0.5691 -0.4111
vn 0.7121 0.5691 -0.4111
vn -0.0000 0.5691 -0.8223
vn 0.7121 -0.5691 0.4111
vn 0.7121 0.5691 0.4111
vn -0.0000 -0.5691 0.8223
vn -0.0000 0.5691 0.8223
vn -0.7121 -0.5691 0.4111
vn -0.7121 0.5691 0.4111
vn -0.7121 -0.5691 -0.4111
vn -0.7121 0.5691 -0.4111
vt 0.473715 0.114232
vt 0.473715 0.334918
vt 0.400153 0.334918
vt 0.400153 0.114232
vt 0.326591 0.334918
vt 0.326591 0.114232
vt 0.253029 0.334918
vt 0.253029 0.114232
vt 0.179466 0.334918
vt 0.179466 0.114232
vt 0.105904 0.334918
vt 0.105904 0.114232
vt 0.032342 0.334918
vt 0.032342 0.114232
vt 0.183115 0.768445
vt 0.135852 0.768446
vt 0.064802 0.425672
vt 0.147590 0.425672
vt 0.324905 0.768446
vt 0.277642 0.768446
vt 0.313166 0.425672
vt 0.395955 0.425672
vt 0.230378 0.866104
s 1
f 3/1/3 6/2/6 5/3/5 4/4/4
f 4/4/4 5/3/5 8/5/8 7/6/7
f 7/6/7 8/5/8 10/7/10 9/8/9
f 9/8/9 10/7/10 12/9/12 11/10/11
f 11/10/11 12/9/12 14/11/14 13/12/13
f 13/12/13 14/11/14 6/13/6 3/14/3
f 16/15/16 15/16/15 3/17/3 4/18/4
f 18/19/18 17/20/17 5/21/5 6/22/6
f 19/20/19 16/15/16 4/18/4 7/21/7
f 17/20/17 20/15/20 8/18/8 5/21/5
f 21/19/21 19/20/19 7/21/7 9/22/9
f 20/15/20 22/16/22 10/17/10 8/18/8
f 23/20/23 21/19/21 9/22/9 11/21/11
f 22/16/22 24/15/24 12/18/12 10/17/10
f 25/15/25 23/20/23 11/21/11 13/18/13
f 24/15/24 26/20/26 14/21/14 12/18/12
f 15/16/15 25/15/25 13/18/13 3/17/3
f 26/20/26 18/19/18 6/22/6 14/21/14
f 1/23/1 15/16/15 16/15/16
f 2/23/2 17/20/17 18/19/18
f 1/23/1 16/15/16 19/20/19
f 2/23/2 20/15/20 17/20/17
f 1/23/1 19/20/19 21/19/21
f 2/23/2 22/16/22 20/15/20
f 1/23/1 21/19/21 23/20/23
f 2/23/2 24/15/24 22/16/22
f 1/23/1 23/20/23 25/15/25
f 2/23/2 26/20/26 24/15/24
f 1/23/1 25/15/25 15/16/15
f 2/23/2 18/19/18 26/20/26
