# Blender 4.5.3 LTS
# www.blender.org
o Marble
v 0.119707 1.208284 -0.207339
v 0.224976 1.086731 -0.389669
v 0.303109 0.900500 -0.525000
v 0.344683 0.672053 -0.597008
v 0.344683 0.428946 -0.597008
v 0.303109 0.200500 -0.525000
v 0.224976 0.014269 -0.389669
v 0.119707 -0.107285 -0.207339
v 0.207339 1.208284 -0.119707
v 0.389669 1.086731 -0.224976
v 0.525000 0.900500 -0.303109
v 0.597008 0.672053 -0.344683
v 0.597008 0.428946 -0.344683
v 0.525000 0.200500 -0.303109
v 0.389669 0.014269 -0.224976
v 0.207339 -0.107285 -0.119707
v 0.239414 1.208284 0.000000
v 0.449951 1.086731 0.000000
v 0.606218 0.900500 0.000000
v 0.689365 0.672053 0.000000
v 0.689365 0.428946 0.000000
v 0.606218 0.200500 0.000000
v 0.449951 0.014269 0.000000
v 0.239414 -0.107285 0.000000
v 0.207339 1.208284 0.119707
v 0.389669 1.086731 0.224976
v 0.525000 0.900500 0.303109
v 0.597008 0.672053 0.344683
v 0.597008 0.428946 0.344683
v 0.525000 0.200500 0.303109
v 0.389669 0.014269 0.224976
v 0.207339 -0.107285 0.119707
v 0.119707 1.208284 0.207339
v 0.224976 1.086731 0.389669
v 0.303109 0.900500 0.525000
v 0.344683 0.672053 0.597008
v 0.344683 0.428946 0.597008
v 0.303109 0.200500 0.525000
v 0.224976 0.014269 0.389669
v 0.119707 -0.107285 0.207339
v 0.000000 1.208284 0.239414
v -0.000000 1.086731 0.449951
v 0.000000 0.900500 0.606218
v 0.000000 0.672053 0.689365
v 0.000000 0.428946 0.689365
v 0.000000 0.200500 0.606218
v -0.000000 0.014269 0.449951
v 0.000000 -0.107285 0.239414
v 0.000000 -0.149500 0.000000
v 0.000000 1.250500 0.000000
v -0.119707 1.208284 0.207339
v -0.224976 1.086731 0.389669
v -0.303109 0.900500 0.525000
v -0.344683 0.672053 0.597008
v -0.344683 0.428946 0.597008
v -0.303109 0.200500 0.525000
v -0.224976 0.014269 0.389669
v -0.119707 -0.107285 0.207339
v -0.207339 1.208284 0.119707
v -0.389669 1.086731 0.224976
v -0.525000 0.900500 0.303109
v -0.597008 0.672053 0.344683
v -0.597008 0.428946 0.344683
v -0.525000 0.200500 0.303109
v -0.389669 0.014269 0.224976
v -0.207339 -0.107285 0.119707
v -0.239414 1.208284 0.000000
v -0.449951 1.086731 -0.000000
v -0.606218 0.900500 0.000000
v -0.689365 0.672053 0.000000
v -0.689365 0.428946 0.000000
v -0.606218 0.200500 0.000000
v -0.449951 0.014269 -0.000000
v -0.239414 -0.107285 0.000000
v -0.207339 1.208284 -0.119707
v -0.389669 1.086731 -0.224976
v -0.525000 0.900500 -0.303109
v -0.597008 0.672053 -0.344683
v -0.597008 0.428946 -0.344683
v -0.525000 0.200500 -0.303109
v -0.389669 0.014269 -0.224976
v -0.207339 -0.107285 -0.119707
v -0.119707 1.208284 -0.207339
v -0.224976 1.086731 -0.389669
v -0.303109 0.900500 -0.525000
v -0.344683 0.672053 -0.597008
v -0.344683 0.428946 -0.597008
v -0.303109 0.200500 -0.525000
v -0.224976 0.014269 -0.389669
v -0.119707 -0.107285 -0.207339
v 0.000000 1.208284 -0.239414
v 0.000000 1.086731 -0.449951
v 0.000000 0.900500 -0.606218
v 0.000000 0.672053 -0.689365
v 0.000000 0.428946 -0.689365
v 0.000000 0.200500 -0.606218
v 0.000000 0.014269 -0.449951
v 0.000000 -0.107285 -0.239414
vn -0.1835 -0.9302 0.3179
vn -0.3295 -0.7521 0.5708
vn -0.4364 -0.4880 0.7559
vn -0.4928 -0.1689 0.8536
vn -0.4928 0.1689 0.8536
vn -0.4364 0.4880 0.7559
vn -0.3295 0.7521 0.5708
vn -0.1835 0.9302 0.3179
vn -0.3179 -0.9302 0.1835
vn -0.5708 -0.7521 0.3295
vn -0.7559 -0.4880 0.4364
vn -0.8536 -0.1689 0.4928
vn -0.8536 0.1689 0.4928
vn -0.7559 0.4880 0.4364
vn -0.5708 0.7521 0.3295
vn -0.3179 0.9302 0.1835
vn -0.3670 -0.9302 -0.0000
vn -0.6591 -0.7521 -0.0000
vn -0.8729 -0.4880 -0.0000
vn -0.9856 -0.1689 -0.0000
vn -0.9856 0.1689 -0.0000
vn -0.8729 0.4880 -0.0000
vn -0.6591 0.7521 -0.0000
vn -0.3670 0.9302 -0.0000
vn -0.3179 -0.9302 -0.1835
vn -0.5708 -0.7521 -0.3295
vn -0.7559 -0.4880 -0.4364
vn -0.8536 -0.1689 -0.4928
vn -0.8536 0.1689 -0.4928
vn -0.7559 0.4880 -0.4364
vn -0.5708 0.7521 -0.3295
vn -0.3179 0.9302 -0.1835
vn -0.1835 -0.9302 -0.3179
vn -0.3295 -0.7521 -0.5708
vn -0.4364 -0.4880 -0.7559
vn -0.4928 -0.1689 -0.8536
vn -0.4928 0.1689 -0.8536
vn -0.4364 0.4880 -0.7559
vn -0.3295 0.7521 -0.5708
vn -0.1835 0.9302 -0.3179
vn -0.0000 -0.9302 -0.3670
vn -0.0000 -0.7521 -0.6591
vn -0.0000 -0.4880 -0.8729
vn -0.0000 -0.1689 -0.9856
vn -0.0000 0.1689 -0.9856
vn -0.0000 0.4880 -0.8729
vn -0.0000 0.7521 -0.6591
vn -0.0000 0.9302 -0.3670
vn -0.0000 1.0000 -0.0000
vn -0.0000 -1.0000 -0.0000
vn 0.1835 -0.9302 -0.3179
vn 0.3295 -0.7521 -0.5708
vn 0.4364 -0.4880 -0.7559
vn 0.4928 -0.1689 -0.8536
vn 0.4928 0.1689 -0.8536
vn 0.4364 0.4880 -0.7559
vn 0.3295 0.7521 -0.5708
vn 0.1835 0.9302 -0.3179
vn 0.3179 -0.9302 -0.1835
vn 0.5708 -0.7521 -0.3295
vn 0.7559 -0.4880 -0.4364
vn 0.8536 -0.1689 -0.4928
vn 0.8536 0.1689 -0.4928
vn 0.7559 0.4880 -0.4364
vn 0.5708 0.7521 -0.3295
vn 0.3179 0.9302 -0.1835
vn 0.3670 -0.9302 -0.0000
vn 0.6591 -0.7521 -0.0000
vn 0.8729 -0.4880 -0.0000
vn 0.9856 -0.1689 -0.0000
vn 0.9856 0.1689 -0.0000
vn 0.8729 0.4880 -0.0000
vn 0.6591 0.7521 -0.0000
vn 0.3670 0.9302 -0.0000
vn 0.3179 -0.9302 0.1835
vn 0.5708 -0.7521 0.3295
vn 0.7559 -0.4880 0.4364
vn 0.8536 -0.1689 0.4928
vn 0.8536 0.1689 0.4928
vn 0.7559 0.4880 0.4364
vn 0.5708 0.7521 0.3295
vn 0.3179 0.9302 0.1835
vn 0.1835 -0.9302 0.3179
vn 0.3295 -0.7521 0.5708
vn 0.4364 -0.4880 0.7559
vn 0.4928 -0.1689 0.8536
vn 0.4928 0.1689 0.8536
vn 0.4364 0.4880 0.7559
vn 0.3295 0.7521 0.5708
vn 0.1835 0.9302 0.3179
vn -0.0000 -0.9302 0.3670
vn -0.0000 -0.7521 0.6591
vn -0.0000 -0.4880 0.8729
vn -0.0000 -0.1689 0.9856
vn -0.0000 0.1689 0.9856
vn -0.0000 0.4880 0.8729
vn -0.0000 0.7521 0.6591
vn -0.0000 0.9302 0.3670
vt 0.750000 0.777778
vt 0.666667 0.777778
vt 0.666667 0.888889
vt 0.750000 0.888889
vt 0.708333 0.000000
vt 0.666667 0.111111
vt 0.750000 0.111111
vt 0.750000 0.333333
vt 0.666667 0.333333
vt 0.666667 0.444444
vt 0.750000 0.444444
vt 0.750000 0.666667
vt 0.666667 0.666667
vt 0.750000 0.222222
vt 0.666667 0.222222
vt 0.750000 0.555556
vt 0.666667 0.555556
vt 0.708333 1.000000
vt 0.583333 0.222222
vt 0.583333 0.333333
vt 0.583333 0.555556
vt 0.583333 0.666667
vt 0.583333 0.888889
vt 0.625000 1.000000
vt 0.583333 0.111111
vt 0.583333 0.444444
vt 0.583333 0.777778
vt 0.625000 0.000000
vt 0.500000 0.111111
vt 0.500000 0.222222
vt 0.500000 0.444444
vt 0.500000 0.555556
vt 0.500000 0.777778
vt 0.500000 0.888889
vt 0.541667 0.000000
vt 0.500000 0.333333
vt 0.500000 0.666667
vt 0.541667 1.000000
vt 0.416667 0.333333
vt 0.416667 0.444444
vt 0.416667 0.666667
vt 0.416667 0.777778
vt 0.416667 0.222222
vt 0.416667 0.555556
vt 0.416667 0.888889
vt 0.458333 1.000000
vt 0.416667 0.111111
vt 0.458333 0.000000
vt 0.333333 0.555556
vt 0.333333 0.666667
vt 0.333333 0.888889
vt 0.375000 1.000000
vt 0.333333 0.111111
vt 0.333333 0.222222
vt 0.333333 0.444444
vt 0.333333 0.777778
vt 0.375000 0.000000
vt 0.333333 0.333333
vt 0.250000 0.777778
vt 0.250000 0.888889
vt 0.291667 0.000000
vt 0.250000 0.111111
vt 0.250000 0.333333
vt 0.250000 0.444444
vt 0.250000 0.666667
vt 0.250000 0.222222
vt 0.250000 0.555556
vt 0.291667 1.000000
vt 0.166667 0.222222
vt 0.166667 0.333333
vt 0.166667 0.555556
vt 0.166667 0.666667
vt 0.166667 0.888889
vt 0.208333 1.000000
vt 0.166667 0.111111
vt 0.166667 0.444444
vt 0.166667 0.777778
vt 0.208333 0.000000
vt 0.083333 0.444444
vt 0.083333 0.555556
vt 0.083333 0.777778
vt 0.083333 0.888889
vt 0.125000 0.000000
vt 0.083333 0.111111
vt 0.083333 0.333333
vt 0.083333 0.666667
vt 0.083333 0.222222
vt 0.125000 1.000000
vt 0.000000 0.666667
vt 0.000000 0.777778
vt 0.000000 0.222222
vt 0.000000 0.333333
vt 0.000000 0.555556
vt 0.000000 0.888889
vt 0.041667 1.000000
vt 0.000000 0.111111
vt 0.000000 0.444444
vt 0.041667 0.000000
vt 1.000000 0.888889
vt 0.916667 0.888889
vt 0.958333 1.000000
vt 1.000000 0.111111
vt 0.916667 0.111111
vt 0.916667 0.222222
vt 1.000000 0.222222
vt 1.000000 0.444444
vt 0.916667 0.444444
vt 0.916667 0.555556
vt 1.000000 0.555556
vt 1.000000 0.777778
vt 0.916667 0.777778
vt 0.958333 0.000000
vt 1.000000 0.333333
vt 0.916667 0.333333
vt 1.000000 0.666667
vt 0.916667 0.666667
vt 0.875000 0.000000
vt 0.833333 0.111111
vt 0.833333 0.333333
vt 0.833333 0.444444
vt 0.833333 0.666667
vt 0.833333 0.777778
vt 0.833333 0.222222
vt 0.833333 0.555556
vt 0.833333 0.888889
vt 0.875000 1.000000
vt 0.791667 1.000000
vt 0.791667 0.000000
s 1
f 92/1/92 2/2/2 1/3/1 91/4/91
f 49/5/49 8/6/8 98/7/98
f 96/8/96 6/9/6 5/10/5 95/11/95
f 93/12/93 3/13/3 2/2/2 92/1/92
f 97/14/97 7/15/7 6/9/6 96/8/96
f 94/16/94 4/17/4 3/13/3 93/12/93
f 91/4/91 1/3/1 50/18/50
f 98/7/98 8/6/8 7/15/7 97/14/97
f 95/11/95 5/10/5 4/17/4 94/16/94
f 7/15/7 15/19/15 14/20/14 6/9/6
f 4/17/4 12/21/12 11/22/11 3/13/3
f 1/3/1 9/23/9 50/24/50
f 8/6/8 16/25/16 15/19/15 7/15/7
f 5/10/5 13/26/13 12/21/12 4/17/4
f 2/2/2 10/27/10 9/23/9 1/3/1
f 49/28/49 16/25/16 8/6/8
f 6/9/6 14/20/14 13/26/13 5/10/5
f 3/13/3 11/22/11 10/27/10 2/2/2
f 16/25/16 24/29/24 23/30/23 15/19/15
f 13/26/13 21/31/21 20/32/20 12/21/12
f 10/27/10 18/33/18 17/34/17 9/23/9
f 49/35/49 24/29/24 16/25/16
f 14/20/14 22/36/22 21/31/21 13/26/13
f 11/22/11 19/37/19 18/33/18 10/27/10
f 15/19/15 23/30/23 22/36/22 14/20/14
f 12/21/12 20/32/20 19/37/19 11/22/11
f 9/23/9 17/34/17 50/38/50
f 22/36/22 30/39/30 29/40/29 21/31/21
f 19/37/19 27/41/27 26/42/26 18/33/18
f 23/30/23 31/43/31 30/39/30 22/36/22
f 20/32/20 28/44/28 27/41/27 19/37/19
f 17/34/17 25/45/25 50/46/50
f 24/29/24 32/47/32 31/43/31 23/30/23
f 21/31/21 29/40/29 28/44/28 20/32/20
f 18/33/18 26/42/26 25/45/25 17/34/17
f 49/48/49 32/47/32 24/29/24
f 28/44/28 36/49/36 35/50/35 27/41/27
f 25/45/25 33/51/33 50/52/50
f 32/47/32 40/53/40 39/54/39 31/43/31
f 29/40/29 37/55/37 36/49/36 28/44/28
f 26/42/26 34/56/34 33/51/33 25/45/25
f 49/57/49 40/53/40 32/47/32
f 30/39/30 38/58/38 37/55/37 29/40/29
f 27/41/27 35/50/35 34/56/34 26/42/26
f 31/43/31 39/54/39 38/58/38 30/39/30
f 34/56/34 42/59/42 41/60/41 33/51/33
f 49/61/49 48/62/48 40/53/40
f 38/58/38 46/63/46 45/64/45 37/55/37
f 35/50/35 43/65/43 42/59/42 34/56/34
f 39/54/39 47/66/47 46/63/46 38/58/38
f 36/49/36 44/67/44 43/65/43 35/50/35
f 33/51/33 41/60/41 50/68/50
f 40/53/40 48/62/48 47/66/47 39/54/39
f 37/55/37 45/64/45 44/67/44 36/49/36
f 47/66/47 57/69/57 56/70/56 46/63/46
f 44/67/44 54/71/54 53/72/53 43/65/43
f 41/60/41 51/73/51 50/74/50
f 48/62/48 58/75/58 57/69/57 47/66/47
f 45/64/45 55/76/55 54/71/54 44/67/44
f 42/59/42 52/77/52 51/73/51 41/60/41
f 49/78/49 58/75/58 48/62/48
f 46/63/46 56/70/56 55/76/55 45/64/45
f 43/65/43 53/72/53 52/77/52 42/59/42
f 55/76/55 63/79/63 62/80/62 54/71/54
f 52/77/52 60/81/60 59/82/59 51/73/51
f 49/83/49 66/84/66 58/75/58
f 56/70/56 64/85/64 63/79/63 55/76/55
f 53/72/53 61/86/61 60/81/60 52/77/52
f 57/69/57 65/87/65 64/85/64 56/70/56
f 54/71/54 62/80/62 61/86/61 53/72/53
f 51/73/51 59/82/59 50/88/50
f 58/75/58 66/84/66 65/87/65 57/69/57
f 61/86/61 69/89/69 68/90/68 60/81/60
f 65/87/65 73/91/73 72/92/72 64/85/64
f 62/80/62 70/93/70 69/89/69 61/86/61
f 59/82/59 67/94/67 50/95/50
f 66/84/66 74/96/74 73/91/73 65/87/65
f 63/79/63 71/97/71 70/93/70 62/80/62
f 60/81/60 68/90/68 67/94/67 59/82/59
f 49/98/49 74/96/74 66/84/66
f 64/85/64 72/92/72 71/97/71 63/79/63
f 67/99/67 75/100/75 50/101/50
f 74/102/74 82/103/82 81/104/81 73/105/73
f 71/106/71 79/107/79 78/108/78 70/109/70
f 68/110/68 76/111/76 75/100/75 67/99/67
f 49/112/49 82/103/82 74/102/74
f 72/113/72 80/114/80 79/107/79 71/106/71
f 69/115/69 77/116/77 76/111/76 68/110/68
f 73/105/73 81/104/81 80/114/80 72/113/72
f 70/109/70 78/108/78 77/116/77 69/115/69
f 49/117/49 90/118/90 82/103/82
f 80/114/80 88/119/88 87/120/87 79/107/79
f 77/116/77 85/121/85 84/122/84 76/111/76
f 81/104/81 89/123/89 88/119/88 80/114/80
f 78/108/78 86/124/86 85/121/85 77/116/77
f 75/100/75 83/125/83 50/126/50
f 82/103/82 90/118/90 89/123/89 81/104/81
f 79/107/79 87/120/87 86/124/86 78/108/78
f 76/111/76 84/122/84 83/125/83 75/100/75
f 89/123/89 97/14/97 96/8/96 88/119/88
f 86/124/86 94/16/94 93/12/93 85/121/85
f 83/125/83 91/4/91 50/127/50
f 90/118/90 98/7/98 97/14/97 89/123/89
f 87/120/87 95/11/95 94/16/94 86/124/86
f 84/122/84 92/1/92 91/4/91 83/125/83
f 49/128/49 98/7/98 90/118/90
f 88/119/88 96/8/96 95/11/95 87/120/87
f 85/121/85 93/12/93 92/1/92 84/122/84
